<mxfile host="Electron" agent="Mozilla/5.0 (Windows NT 10.0; Win64; x64) AppleWebKit/537.36 (KHTML, like Gecko) draw.io/25.0.2 Chrome/128.0.6613.186 Electron/32.2.5 Safari/537.36" version="25.0.2">
  <diagram name="Страница — 1" id="F485koDoDc225y0sh10d">
    <mxGraphModel dx="3112" dy="2725" grid="0" gridSize="10" guides="1" tooltips="1" connect="1" arrows="1" fold="1" page="0" pageScale="1" pageWidth="827" pageHeight="1169" math="0" shadow="1">
      <root>
        <mxCell id="0" />
        <mxCell id="1" parent="0" />
        <mxCell id="t151YAEw3NwL-A4LUWF_-4" style="edgeStyle=orthogonalEdgeStyle;rounded=1;orthogonalLoop=1;jettySize=auto;html=1;exitX=0;exitY=0.5;exitDx=0;exitDy=0;entryX=0.5;entryY=0;entryDx=0;entryDy=0;curved=1;labelBackgroundColor=none;fontColor=default;" parent="1" source="t151YAEw3NwL-A4LUWF_-1" target="t151YAEw3NwL-A4LUWF_-2" edge="1">
          <mxGeometry relative="1" as="geometry" />
        </mxCell>
        <mxCell id="t151YAEw3NwL-A4LUWF_-5" style="edgeStyle=orthogonalEdgeStyle;rounded=1;orthogonalLoop=1;jettySize=auto;html=1;exitX=1;exitY=0.5;exitDx=0;exitDy=0;entryX=0.5;entryY=0;entryDx=0;entryDy=0;curved=1;labelBackgroundColor=none;fontColor=default;" parent="1" source="t151YAEw3NwL-A4LUWF_-1" target="t151YAEw3NwL-A4LUWF_-3" edge="1">
          <mxGeometry relative="1" as="geometry" />
        </mxCell>
        <mxCell id="t151YAEw3NwL-A4LUWF_-7" style="edgeStyle=orthogonalEdgeStyle;rounded=1;orthogonalLoop=1;jettySize=auto;html=1;exitX=0.5;exitY=1;exitDx=0;exitDy=0;curved=1;labelBackgroundColor=none;fontColor=default;" parent="1" source="t151YAEw3NwL-A4LUWF_-1" target="t151YAEw3NwL-A4LUWF_-6" edge="1">
          <mxGeometry relative="1" as="geometry" />
        </mxCell>
        <mxCell id="t151YAEw3NwL-A4LUWF_-1" value="Turn" style="rounded=1;whiteSpace=wrap;html=1;labelBackgroundColor=none;" parent="1" vertex="1">
          <mxGeometry x="-839" y="-645" width="120" height="60" as="geometry" />
        </mxCell>
        <mxCell id="t151YAEw3NwL-A4LUWF_-2" value="MainAction&lt;div&gt;- visible&lt;/div&gt;&lt;div&gt;- attack/heal/use&lt;/div&gt;" style="rounded=1;whiteSpace=wrap;html=1;labelBackgroundColor=none;" parent="1" vertex="1">
          <mxGeometry x="-983" y="-563" width="120" height="60" as="geometry" />
        </mxCell>
        <mxCell id="t151YAEw3NwL-A4LUWF_-3" value="SecondaryAction&lt;br&gt;- invisible&lt;div&gt;- evade/parry/trap&lt;/div&gt;" style="rounded=1;whiteSpace=wrap;html=1;labelBackgroundColor=none;" parent="1" vertex="1">
          <mxGeometry x="-687" y="-563" width="120" height="60" as="geometry" />
        </mxCell>
        <mxCell id="t151YAEw3NwL-A4LUWF_-6" value="Move&lt;div&gt;- in any time&lt;/div&gt;&lt;div&gt;- has limit&lt;/div&gt;" style="rounded=1;whiteSpace=wrap;html=1;labelBackgroundColor=none;" parent="1" vertex="1">
          <mxGeometry x="-839" y="-473" width="120" height="60" as="geometry" />
        </mxCell>
        <mxCell id="t151YAEw3NwL-A4LUWF_-42" style="edgeStyle=orthogonalEdgeStyle;rounded=0;orthogonalLoop=1;jettySize=auto;html=1;exitX=0.5;exitY=1;exitDx=0;exitDy=0;curved=1;" parent="1" source="t151YAEw3NwL-A4LUWF_-8" target="t151YAEw3NwL-A4LUWF_-9" edge="1">
          <mxGeometry relative="1" as="geometry" />
        </mxCell>
        <mxCell id="t151YAEw3NwL-A4LUWF_-8" value="Character" style="rounded=1;whiteSpace=wrap;html=1;labelBackgroundColor=none;" parent="1" vertex="1">
          <mxGeometry x="37" y="-133" width="120" height="60" as="geometry" />
        </mxCell>
        <mxCell id="t151YAEw3NwL-A4LUWF_-12" style="edgeStyle=orthogonalEdgeStyle;rounded=1;orthogonalLoop=1;jettySize=auto;html=1;exitX=0;exitY=0.5;exitDx=0;exitDy=0;curved=1;labelBackgroundColor=none;fontColor=default;" parent="1" source="t151YAEw3NwL-A4LUWF_-9" target="t151YAEw3NwL-A4LUWF_-10" edge="1">
          <mxGeometry relative="1" as="geometry" />
        </mxCell>
        <mxCell id="t151YAEw3NwL-A4LUWF_-13" style="edgeStyle=orthogonalEdgeStyle;rounded=1;orthogonalLoop=1;jettySize=auto;html=1;exitX=1;exitY=0.5;exitDx=0;exitDy=0;curved=1;labelBackgroundColor=none;fontColor=default;" parent="1" source="t151YAEw3NwL-A4LUWF_-9" target="t151YAEw3NwL-A4LUWF_-11" edge="1">
          <mxGeometry relative="1" as="geometry" />
        </mxCell>
        <mxCell id="t151YAEw3NwL-A4LUWF_-9" value="Characteristics" style="rounded=1;whiteSpace=wrap;html=1;labelBackgroundColor=none;" parent="1" vertex="1">
          <mxGeometry x="37" y="80" width="120" height="60" as="geometry" />
        </mxCell>
        <mxCell id="t151YAEw3NwL-A4LUWF_-39" style="edgeStyle=orthogonalEdgeStyle;rounded=1;orthogonalLoop=1;jettySize=auto;html=1;exitX=0.5;exitY=1;exitDx=0;exitDy=0;labelBackgroundColor=none;fontColor=default;" parent="1" source="t151YAEw3NwL-A4LUWF_-10" target="t151YAEw3NwL-A4LUWF_-38" edge="1">
          <mxGeometry relative="1" as="geometry" />
        </mxCell>
        <mxCell id="t151YAEw3NwL-A4LUWF_-10" value="Attributes" style="rounded=1;whiteSpace=wrap;html=1;labelBackgroundColor=none;" parent="1" vertex="1">
          <mxGeometry x="-246" y="189" width="120" height="60" as="geometry" />
        </mxCell>
        <mxCell id="t151YAEw3NwL-A4LUWF_-18" style="edgeStyle=orthogonalEdgeStyle;rounded=1;orthogonalLoop=1;jettySize=auto;html=1;exitX=0.5;exitY=1;exitDx=0;exitDy=0;curved=1;labelBackgroundColor=none;fontColor=default;" parent="1" source="t151YAEw3NwL-A4LUWF_-11" target="t151YAEw3NwL-A4LUWF_-16" edge="1">
          <mxGeometry relative="1" as="geometry" />
        </mxCell>
        <mxCell id="t151YAEw3NwL-A4LUWF_-19" style="edgeStyle=orthogonalEdgeStyle;rounded=1;orthogonalLoop=1;jettySize=auto;html=1;exitX=0;exitY=0.5;exitDx=0;exitDy=0;curved=1;labelBackgroundColor=none;fontColor=default;" parent="1" source="t151YAEw3NwL-A4LUWF_-11" target="t151YAEw3NwL-A4LUWF_-15" edge="1">
          <mxGeometry relative="1" as="geometry" />
        </mxCell>
        <mxCell id="t151YAEw3NwL-A4LUWF_-20" style="edgeStyle=orthogonalEdgeStyle;rounded=1;orthogonalLoop=1;jettySize=auto;html=1;exitX=1;exitY=0.5;exitDx=0;exitDy=0;curved=1;labelBackgroundColor=none;fontColor=default;" parent="1" source="t151YAEw3NwL-A4LUWF_-11" target="t151YAEw3NwL-A4LUWF_-17" edge="1">
          <mxGeometry relative="1" as="geometry" />
        </mxCell>
        <mxCell id="t151YAEw3NwL-A4LUWF_-11" value="Parameters" style="rounded=1;whiteSpace=wrap;html=1;labelBackgroundColor=none;" parent="1" vertex="1">
          <mxGeometry x="367" y="189" width="120" height="60" as="geometry" />
        </mxCell>
        <mxCell id="t151YAEw3NwL-A4LUWF_-15" value="Attack" style="rounded=1;whiteSpace=wrap;html=1;labelBackgroundColor=none;" parent="1" vertex="1">
          <mxGeometry x="206" y="306" width="120" height="60" as="geometry" />
        </mxCell>
        <mxCell id="t151YAEw3NwL-A4LUWF_-16" value="Defence" style="rounded=1;whiteSpace=wrap;html=1;labelBackgroundColor=none;" parent="1" vertex="1">
          <mxGeometry x="367" y="306" width="120" height="60" as="geometry" />
        </mxCell>
        <mxCell id="t151YAEw3NwL-A4LUWF_-17" value="Utility" style="rounded=1;whiteSpace=wrap;html=1;labelBackgroundColor=none;" parent="1" vertex="1">
          <mxGeometry x="527" y="306" width="120" height="60" as="geometry" />
        </mxCell>
        <mxCell id="t151YAEw3NwL-A4LUWF_-38" value="&lt;ul&gt;&lt;li&gt;Представляют собой целочисленные (int) значения в диапазоне от 1 до 100&lt;/li&gt;&lt;li&gt;Значения могут быть повышены с прокачкой уровня персонажа&lt;/li&gt;&lt;li&gt;Базовые значения опредляются выбранным классом персонажа&lt;/li&gt;&lt;li&gt;Значения могут быть изменены предметами, заклинаниями и эффектами&lt;/li&gt;&lt;li&gt;&lt;br&gt;&lt;/li&gt;&lt;li&gt;Strength (сила) - влияет на урон в ближнем (х2) и дальнем (х1.5) бою&lt;/li&gt;&lt;li&gt;Agility (ловкость) - влияет на урон в ближнем (х1.5) и дальнем (х2) бою&lt;/li&gt;&lt;li&gt;Intelligence (интеллект) - влияет на урон от заклинаний (х3)&lt;/li&gt;&lt;li&gt;Faith (вера) - влияет на элементальный урон (х1.5)&lt;/li&gt;&lt;li&gt;Luck (удача) - означает силу влияния удачи, к примеру:&lt;br&gt;- damage * (1 + luck / 100 * randi(-1, 1))&lt;br&gt;- another example...&lt;/li&gt;&lt;li&gt;Curse (проклятие) - увеличивает входящий и исходящий урон:&lt;br&gt;- in/out_damage * (curse / 10)&lt;/li&gt;&lt;/ul&gt;" style="rounded=1;whiteSpace=wrap;html=1;align=left;spacing=2;labelBackgroundColor=none;" parent="1" vertex="1">
          <mxGeometry x="-384" y="291" width="396" height="341" as="geometry" />
        </mxCell>
        <mxCell id="2ifkSSPFj_gaEPzBZ0_c-2" value="" style="rounded=0;whiteSpace=wrap;html=1;fillColor=#16002B;" vertex="1" parent="1">
          <mxGeometry x="-4" y="-1304" width="640" height="360" as="geometry" />
        </mxCell>
        <mxCell id="2ifkSSPFj_gaEPzBZ0_c-3" value="" style="rounded=1;whiteSpace=wrap;html=1;strokeWidth=10;strokeColor=#331A00;fillColor=#150133;" vertex="1" parent="1">
          <mxGeometry x="59" y="-1295" width="343" height="267" as="geometry" />
        </mxCell>
        <mxCell id="2ifkSSPFj_gaEPzBZ0_c-5" value="" style="rounded=1;whiteSpace=wrap;html=1;strokeWidth=10;strokeColor=#331A00;fillColor=#150133;" vertex="1" parent="1">
          <mxGeometry x="412" y="-1295.5" width="211" height="343" as="geometry" />
        </mxCell>
        <mxCell id="2ifkSSPFj_gaEPzBZ0_c-6" value="" style="rounded=1;whiteSpace=wrap;html=1;strokeWidth=8;strokeColor=#994C00;fillColor=#150133;" vertex="1" parent="1">
          <mxGeometry x="101" y="-1237" width="75" height="86" as="geometry" />
        </mxCell>
        <mxCell id="2ifkSSPFj_gaEPzBZ0_c-7" value="" style="rounded=1;whiteSpace=wrap;html=1;strokeWidth=8;strokeColor=#336600;fillColor=#150133;" vertex="1" parent="1">
          <mxGeometry x="194" y="-1237" width="75" height="86" as="geometry" />
        </mxCell>
        <mxCell id="2ifkSSPFj_gaEPzBZ0_c-8" value="" style="rounded=1;whiteSpace=wrap;html=1;strokeWidth=8;strokeColor=#336600;fillColor=#150133;" vertex="1" parent="1">
          <mxGeometry x="285" y="-1237" width="75" height="86" as="geometry" />
        </mxCell>
        <mxCell id="2ifkSSPFj_gaEPzBZ0_c-9" value="" style="rounded=1;whiteSpace=wrap;html=1;strokeWidth=8;strokeColor=#808080;fillColor=#150133;" vertex="1" parent="1">
          <mxGeometry x="101" y="-1136" width="75" height="86" as="geometry" />
        </mxCell>
        <mxCell id="2ifkSSPFj_gaEPzBZ0_c-10" value="" style="rounded=1;whiteSpace=wrap;html=1;strokeWidth=8;strokeColor=#808080;fillColor=#150133;" vertex="1" parent="1">
          <mxGeometry x="194" y="-1136" width="75" height="86" as="geometry" />
        </mxCell>
        <mxCell id="2ifkSSPFj_gaEPzBZ0_c-11" value="" style="rounded=1;whiteSpace=wrap;html=1;strokeWidth=8;strokeColor=#808080;fillColor=#150133;" vertex="1" parent="1">
          <mxGeometry x="285" y="-1136" width="75" height="86" as="geometry" />
        </mxCell>
        <mxCell id="2ifkSSPFj_gaEPzBZ0_c-12" value="ВЫБЕРИТЕ КЛАСС" style="text;html=1;align=center;verticalAlign=middle;whiteSpace=wrap;rounded=0;fontStyle=1;fontColor=#FFFFFF;fontSize=14;" vertex="1" parent="1">
          <mxGeometry x="157" y="-1284" width="150" height="30" as="geometry" />
        </mxCell>
        <mxCell id="2ifkSSPFj_gaEPzBZ0_c-14" value="предм" style="shape=or;whiteSpace=wrap;html=1;rotation=0;fillColor=#F19C99;flipH=1;strokeWidth=1;" vertex="1" parent="1">
          <mxGeometry x="15" y="-1164" width="39" height="80" as="geometry" />
        </mxCell>
        <mxCell id="2ifkSSPFj_gaEPzBZ0_c-15" value="&lt;font color=&quot;#ffffff&quot;&gt;Характеристики&lt;/font&gt;" style="rounded=1;whiteSpace=wrap;html=1;strokeWidth=8;strokeColor=#808080;fillColor=#150133;" vertex="1" parent="1">
          <mxGeometry x="432" y="-1276" width="171" height="141" as="geometry" />
        </mxCell>
        <mxCell id="2ifkSSPFj_gaEPzBZ0_c-16" value="&lt;span style=&quot;color: rgb(255, 255, 255);&quot;&gt;Описание&lt;/span&gt;" style="rounded=1;whiteSpace=wrap;html=1;strokeWidth=8;strokeColor=#808080;fillColor=#150133;" vertex="1" parent="1">
          <mxGeometry x="432" y="-1118" width="171" height="149" as="geometry" />
        </mxCell>
        <mxCell id="2ifkSSPFj_gaEPzBZ0_c-17" value="&lt;font color=&quot;#ffffff&quot; style=&quot;font-size: 14px;&quot;&gt;&lt;b&gt;НАЧАТЬ ИГРУ&lt;/b&gt;&lt;/font&gt;" style="rounded=1;whiteSpace=wrap;html=1;strokeWidth=8;strokeColor=#994C00;fillColor=#150133;" vertex="1" parent="1">
          <mxGeometry x="155.5" y="-1007" width="153" height="48.5" as="geometry" />
        </mxCell>
        <mxCell id="2ifkSSPFj_gaEPzBZ0_c-18" value="" style="rounded=0;whiteSpace=wrap;html=1;fillColor=#16002B;" vertex="1" parent="1">
          <mxGeometry x="688" y="-1304" width="640" height="360" as="geometry" />
        </mxCell>
        <mxCell id="2ifkSSPFj_gaEPzBZ0_c-19" value="" style="rounded=1;whiteSpace=wrap;html=1;strokeWidth=10;strokeColor=#331A00;fillColor=#150133;" vertex="1" parent="1">
          <mxGeometry x="751" y="-1295" width="343" height="267" as="geometry" />
        </mxCell>
        <mxCell id="2ifkSSPFj_gaEPzBZ0_c-20" value="" style="rounded=1;whiteSpace=wrap;html=1;strokeWidth=10;strokeColor=#331A00;fillColor=#150133;" vertex="1" parent="1">
          <mxGeometry x="1104" y="-1295.5" width="211" height="343" as="geometry" />
        </mxCell>
        <mxCell id="2ifkSSPFj_gaEPzBZ0_c-21" value="" style="rounded=1;whiteSpace=wrap;html=1;strokeWidth=8;strokeColor=#994C00;fillColor=#150133;" vertex="1" parent="1">
          <mxGeometry x="800.5" y="-1223" width="38" height="36" as="geometry" />
        </mxCell>
        <mxCell id="2ifkSSPFj_gaEPzBZ0_c-27" value="ВЫБЕРИТЕ ПРЕДМЕТЫ" style="text;html=1;align=center;verticalAlign=middle;whiteSpace=wrap;rounded=0;fontStyle=1;fontColor=#FFFFFF;fontSize=14;" vertex="1" parent="1">
          <mxGeometry x="835" y="-1267" width="175" height="30" as="geometry" />
        </mxCell>
        <mxCell id="2ifkSSPFj_gaEPzBZ0_c-28" value="класс" style="shape=or;whiteSpace=wrap;html=1;rotation=0;fontColor=#000000;fillColor=#F19C99;flipH=1;" vertex="1" parent="1">
          <mxGeometry x="707" y="-1244" width="39" height="80" as="geometry" />
        </mxCell>
        <mxCell id="2ifkSSPFj_gaEPzBZ0_c-29" value="предм" style="shape=or;whiteSpace=wrap;html=1;rotation=0;fillColor=#F19C99;flipH=1;strokeWidth=4;strokeColor=#994C00;" vertex="1" parent="1">
          <mxGeometry x="707" y="-1164" width="39" height="80" as="geometry" />
        </mxCell>
        <mxCell id="2ifkSSPFj_gaEPzBZ0_c-30" value="&lt;font color=&quot;#ffffff&quot;&gt;Характеристики&lt;/font&gt;" style="rounded=1;whiteSpace=wrap;html=1;strokeWidth=8;strokeColor=#808080;fillColor=#150133;" vertex="1" parent="1">
          <mxGeometry x="1124" y="-1276" width="171" height="141" as="geometry" />
        </mxCell>
        <mxCell id="2ifkSSPFj_gaEPzBZ0_c-31" value="&lt;span style=&quot;color: rgb(255, 255, 255);&quot;&gt;Описание&lt;/span&gt;" style="rounded=1;whiteSpace=wrap;html=1;strokeWidth=8;strokeColor=#808080;fillColor=#150133;" vertex="1" parent="1">
          <mxGeometry x="1124" y="-1118" width="171" height="149" as="geometry" />
        </mxCell>
        <mxCell id="2ifkSSPFj_gaEPzBZ0_c-32" value="&lt;font color=&quot;#ffffff&quot; style=&quot;font-size: 14px;&quot;&gt;&lt;b&gt;НАЧАТЬ ИГРУ&lt;/b&gt;&lt;/font&gt;" style="rounded=1;whiteSpace=wrap;html=1;strokeWidth=8;strokeColor=#994C00;fillColor=#150133;" vertex="1" parent="1">
          <mxGeometry x="847.5" y="-1007" width="153" height="48.5" as="geometry" />
        </mxCell>
        <mxCell id="2ifkSSPFj_gaEPzBZ0_c-13" value="класс" style="shape=or;whiteSpace=wrap;html=1;rotation=0;fontColor=#000000;fillColor=#F19C99;flipH=1;strokeColor=#994C00;strokeWidth=4;" vertex="1" parent="1">
          <mxGeometry x="15" y="-1244" width="39" height="80" as="geometry" />
        </mxCell>
        <mxCell id="2ifkSSPFj_gaEPzBZ0_c-33" value="" style="rounded=1;whiteSpace=wrap;html=1;strokeWidth=8;strokeColor=#336600;fillColor=#150133;" vertex="1" parent="1">
          <mxGeometry x="852.5" y="-1223" width="38" height="36" as="geometry" />
        </mxCell>
        <mxCell id="2ifkSSPFj_gaEPzBZ0_c-35" value="" style="rounded=1;whiteSpace=wrap;html=1;strokeWidth=8;strokeColor=#336600;fillColor=#150133;" vertex="1" parent="1">
          <mxGeometry x="903.5" y="-1223" width="38" height="36" as="geometry" />
        </mxCell>
        <mxCell id="2ifkSSPFj_gaEPzBZ0_c-36" value="" style="rounded=1;whiteSpace=wrap;html=1;strokeWidth=8;strokeColor=#336600;fillColor=#150133;" vertex="1" parent="1">
          <mxGeometry x="954.5" y="-1223" width="38" height="36" as="geometry" />
        </mxCell>
        <mxCell id="2ifkSSPFj_gaEPzBZ0_c-37" value="" style="rounded=1;whiteSpace=wrap;html=1;strokeWidth=8;strokeColor=#336600;fillColor=#150133;" vertex="1" parent="1">
          <mxGeometry x="1005.5" y="-1223" width="38" height="36" as="geometry" />
        </mxCell>
        <mxCell id="2ifkSSPFj_gaEPzBZ0_c-38" value="" style="rounded=1;whiteSpace=wrap;html=1;strokeWidth=8;strokeColor=#808080;fillColor=#150133;" vertex="1" parent="1">
          <mxGeometry x="801" y="-1175" width="38" height="36" as="geometry" />
        </mxCell>
        <mxCell id="2ifkSSPFj_gaEPzBZ0_c-39" value="" style="rounded=1;whiteSpace=wrap;html=1;strokeWidth=8;strokeColor=#808080;fillColor=#150133;" vertex="1" parent="1">
          <mxGeometry x="853" y="-1175" width="38" height="36" as="geometry" />
        </mxCell>
        <mxCell id="2ifkSSPFj_gaEPzBZ0_c-40" value="" style="rounded=1;whiteSpace=wrap;html=1;strokeWidth=8;strokeColor=#808080;fillColor=#150133;" vertex="1" parent="1">
          <mxGeometry x="904" y="-1175" width="38" height="36" as="geometry" />
        </mxCell>
        <mxCell id="2ifkSSPFj_gaEPzBZ0_c-41" value="" style="rounded=1;whiteSpace=wrap;html=1;strokeWidth=8;strokeColor=#808080;fillColor=#150133;" vertex="1" parent="1">
          <mxGeometry x="955" y="-1175" width="38" height="36" as="geometry" />
        </mxCell>
        <mxCell id="2ifkSSPFj_gaEPzBZ0_c-42" value="" style="rounded=1;whiteSpace=wrap;html=1;strokeWidth=8;strokeColor=#808080;fillColor=#150133;" vertex="1" parent="1">
          <mxGeometry x="1006" y="-1175" width="38" height="36" as="geometry" />
        </mxCell>
        <mxCell id="2ifkSSPFj_gaEPzBZ0_c-43" value="" style="rounded=1;whiteSpace=wrap;html=1;strokeWidth=8;strokeColor=#808080;fillColor=#150133;" vertex="1" parent="1">
          <mxGeometry x="801.5" y="-1125" width="38" height="36" as="geometry" />
        </mxCell>
        <mxCell id="2ifkSSPFj_gaEPzBZ0_c-44" value="" style="rounded=1;whiteSpace=wrap;html=1;strokeWidth=8;strokeColor=#808080;fillColor=#150133;" vertex="1" parent="1">
          <mxGeometry x="853.5" y="-1125" width="38" height="36" as="geometry" />
        </mxCell>
        <mxCell id="2ifkSSPFj_gaEPzBZ0_c-45" value="" style="rounded=1;whiteSpace=wrap;html=1;strokeWidth=8;strokeColor=#808080;fillColor=#150133;" vertex="1" parent="1">
          <mxGeometry x="904.5" y="-1125" width="38" height="36" as="geometry" />
        </mxCell>
        <mxCell id="2ifkSSPFj_gaEPzBZ0_c-46" value="" style="rounded=1;whiteSpace=wrap;html=1;strokeWidth=8;strokeColor=#808080;fillColor=#150133;" vertex="1" parent="1">
          <mxGeometry x="955.5" y="-1125" width="38" height="36" as="geometry" />
        </mxCell>
        <mxCell id="2ifkSSPFj_gaEPzBZ0_c-47" value="" style="rounded=1;whiteSpace=wrap;html=1;strokeWidth=8;strokeColor=#808080;fillColor=#150133;" vertex="1" parent="1">
          <mxGeometry x="1006.5" y="-1125" width="38" height="36" as="geometry" />
        </mxCell>
      </root>
    </mxGraphModel>
  </diagram>
</mxfile>
